{
  "accessors": [
    {
      "bufferView": 2,
      "componentType": 5126,
      "count": 1173,
      "max": [
        1.281848669052124,
        0.6578990817070007,
        1.2532483339309692
      ],
      "min": [
        -0.51973956823349,
        0.04063449054956436,
        -1.2532483339309692
      ],
      "type": "VEC3"
    },
    {
      "bufferView": 2,
      "byteOffset": 14076,
      "componentType": 5126,
      "count": 1173,
      "max": [
        0.9982724785804749,
        0.9999656677246094,
        1.0
      ],
      "min": [
        -1.0,
        -0.9999997019767761,
        -1.0
      ],
      "type": "VEC3"
    },
    {
      "bufferView": 1,
      "componentType": 5126,
      "count": 1173,
      "max": [
        0.8750000596046448,
        1.0
      ],
      "min": [
        0.0,
        0.0
      ],
      "type": "VEC2"
    },
    {
      "bufferView": 0,
      "componentType": 5125,
      "count": 3636,
      "type": "SCALAR"
    },
    {
      "bufferView": 2,
      "byteOffset": 28152,
      "componentType": 5126,
      "count": 54,
      "max": [
        1.159834623336792,
        0.665503203868866,
        1.2636624574661255
      ],
      "min": [
        -0.03709347918629646,
        0.4934580624103546,
        -0.007414999883621931
      ],
      "type": "VEC3"
    },
    {
      "bufferView": 2,
      "byteOffset": 28800,
      "componentType": 5126,
      "count": 54,
      "max": [
        0.9830032587051392,
        0.9824621081352234,
        1.0
      ],
      "min": [
        -0.9142392873764038,
        -0.9992350339889526,
        -0.9443680644035339
      ],
      "type": "VEC3"
    },
    {
      "bufferView": 1,
      "byteOffset": 9384,
      "componentType": 5126,
      "count": 54,
      "max": [
        0.875,
        1.0
      ],
      "min": [
        0.125,
        0.0
      ],
      "type": "VEC2"
    },
    {
      "bufferView": 0,
      "byteOffset": 14544,
      "componentType": 5125,
      "count": 84,
      "type": "SCALAR"
    },
    {
      "bufferView": 2,
      "byteOffset": 29448,
      "componentType": 5126,
      "count": 20,
      "max": [
        -0.019133109599351883,
        0.5002923011779785,
        -1.2532483339309692
      ],
      "min": [
        -0.03709347918629646,
        0.4934580624103546,
        -1.2636624574661255
      ],
      "type": "VEC3"
    },
    {
      "bufferView": 2,
      "byteOffset": 29688,
      "componentType": 5126,
      "count": 20,
      "max": [
        0.9830032587051392,
        0.9432024955749512,
        0.1420213282108307
      ],
      "min": [
        -0.7965381741523743,
        -0.9992350339889526,
        -1.0
      ],
      "type": "VEC3"
    },
    {
      "bufferView": 1,
      "byteOffset": 9816,
      "componentType": 5126,
      "count": 20,
      "max": [
        0.875,
        1.0
      ],
      "min": [
        0.125,
        0.0
      ],
      "type": "VEC2"
    },
    {
      "bufferView": 0,
      "byteOffset": 14880,
      "componentType": 5125,
      "count": 30,
      "type": "SCALAR"
    },
    {
      "bufferView": 2,
      "byteOffset": 29928,
      "componentType": 5126,
      "count": 264,
      "max": [
        0.05531257390975952,
        0.11230164766311646,
        0.35811448097229004
      ],
      "min": [
        -0.3868560791015625,
        -0.002717302879318595,
        -0.35811448097229004
      ],
      "type": "VEC3"
    },
    {
      "bufferView": 2,
      "byteOffset": 33096,
      "componentType": 5126,
      "count": 264,
      "max": [
        0.9659258723258972,
        0.9659257531166077,
        1.0
      ],
      "min": [
        -0.9659260511398315,
        -0.965925931930542,
        -1.0
      ],
      "type": "VEC3"
    },
    {
      "bufferView": 1,
      "byteOffset": 9976,
      "componentType": 5126,
      "count": 264,
      "max": [
        1.0,
        1.0
      ],
      "min": [
        7.450580596923828e-08,
        0.01000000536441803
      ],
      "type": "VEC2"
    },
    {
      "bufferView": 0,
      "byteOffset": 15000,
      "componentType": 5125,
      "count": 468,
      "type": "SCALAR"
    },
    {
      "bufferView": 2,
      "byteOffset": 36264,
      "componentType": 5126,
      "count": 92,
      "max": [
        0.2676147222518921,
        0.45605456829071045,
        0.1406390368938446
      ],
      "min": [
        -0.29165345430374146,
        0.3301214873790741,
        -0.1406390368938446
      ],
      "type": "VEC3"
    },
    {
      "bufferView": 2,
      "byteOffset": 37368,
      "componentType": 5126,
      "count": 92,
      "max": [
        0.1361256092786789,
        0.979208767414093,
        1.0
      ],
      "min": [
        -0.47839850187301636,
        -0.04300442710518837,
        -1.0
      ],
      "type": "VEC3"
    },
    {
      "bufferView": 1,
      "byteOffset": 12088,
      "componentType": 5126,
      "count": 92,
      "max": [
        0.8750000596046448,
        1.0
      ],
      "min": [
        0.5281285047531128,
        0.625
      ],
      "type": "VEC2"
    },
    {
      "bufferView": 0,
      "byteOffset": 16872,
      "componentType": 5125,
      "count": 144,
      "type": "SCALAR"
    },
    {
      "bufferView": 2,
      "byteOffset": 38472,
      "componentType": 5126,
      "count": 232,
      "max": [
        0.026122547686100006,
        0.0334223210811615,
        0.21229234337806702
      ],
      "min": [
        -0.05965171009302139,
        -0.03342263028025627,
        -0.21229243278503418
      ],
      "type": "VEC3"
    },
    {
      "bufferView": 2,
      "byteOffset": 41256,
      "componentType": 5126,
      "count": 232,
      "max": [
        1.0,
        1.0,
        1.0
      ],
      "min": [
        -1.0,
        -1.0,
        -1.0
      ],
      "type": "VEC3"
    },
    {
      "bufferView": 1,
      "byteOffset": 12824,
      "componentType": 5126,
      "count": 232,
      "max": [
        1.0,
        1.0
      ],
      "min": [
        -8.940696716308594e-08,
        0.0
      ],
      "type": "VEC2"
    },
    {
      "bufferView": 0,
      "byteOffset": 17448,
      "componentType": 5125,
      "count": 360,
      "type": "SCALAR"
    },
    {
      "bufferView": 2,
      "byteOffset": 44040,
      "componentType": 5126,
      "count": 48,
      "max": [
        0.008118372410535812,
        0.012089105322957039,
        0.19020210206508636
      ],
      "min": [
        -0.004168717656284571,
        -0.012089661322534084,
        -0.19027236104011536
      ],
      "type": "VEC3"
    },
    {
      "bufferView": 2,
      "byteOffset": 44616,
      "componentType": 5126,
      "count": 48,
      "max": [
        0.9999243021011353,
        0.9952325224876404,
        0.08202558755874634
      ],
      "min": [
        -0.9974859356880188,
        -0.9952518343925476,
        -0.08202431350946426
      ],
      "type": "VEC3"
    },
    {
      "bufferView": 1,
      "byteOffset": 14680,
      "componentType": 5126,
      "count": 48,
      "max": [
        0.875,
        0.726488471031189
      ],
      "min": [
        0.1249999925494194,
        0.023573335260152817
      ],
      "type": "VEC2"
    },
    {
      "bufferView": 0,
      "byteOffset": 18888,
      "componentType": 5125,
      "count": 72,
      "type": "SCALAR"
    }
  ],
  "asset": {
    "extras": {
      "author": "ideehochzwei (https://sketchfab.com/ideehochzwei)",
      "license": "CC-BY-4.0 (http://creativecommons.org/licenses/by/4.0/)",
      "source": "https://sketchfab.com/3d-models/plane-aa001f5a88f64b16b98356c042f2d5f3",
      "title": "Plane"
    },
    "generator": "Sketchfab-12.66.0",
    "version": "2.0"
  },
  "bufferViews": [
    {
      "buffer": 0,
      "byteLength": 19176,
      "name": "floatBufferViews",
      "target": 34963
    },
    {
      "buffer": 0,
      "byteLength": 15064,
      "byteOffset": 19176,
      "byteStride": 8,
      "name": "floatBufferViews",
      "target": 34962
    },
    {
      "buffer": 0,
      "byteLength": 45192,
      "byteOffset": 34240,
      "byteStride": 12,
      "name": "floatBufferViews",
      "target": 34962
    }
  ],
  "buffers": [
    {
      "byteLength": 79432,
      "uri": "scene.bin"
    }
  ],
  "materials": [
    {
      "doubleSided": true,
      "name": "White",
      "pbrMetallicRoughness": {
        "baseColorFactor": [
          0.8,
          0.8,
          0.8,
          1.0
        ],
        "metallicFactor": 0.0,
        "roughnessFactor": 0.6
      }
    },
    {
      "doubleSided": true,
      "name": "material",
      "pbrMetallicRoughness": {
        "baseColorFactor": [
          0.9899636880863927,
          0.0,
          0.0,
          1.0
        ],
        "metallicFactor": 0.0,
        "roughnessFactor": 0.6
      }
    },
    {
      "doubleSided": true,
      "name": "Green_Gras",
      "pbrMetallicRoughness": {
        "baseColorFactor": [
          0.0037727399623307062,
          0.25730578540798066,
          0.0,
          1.0
        ],
        "metallicFactor": 0.0,
        "roughnessFactor": 0.6
      }
    },
    {
      "doubleSided": true,
      "name": "Black",
      "pbrMetallicRoughness": {
        "baseColorFactor": [
          0.0,
          0.0,
          0.0,
          1.0
        ],
        "metallicFactor": 0.0,
        "roughnessFactor": 0.6
      }
    },
    {
      "doubleSided": true,
      "name": "ND-SOB",
      "pbrMetallicRoughness": {
        "baseColorFactor": [
          0.07702881641028514,
          0.5389644085977072,
          0.7926760664667006,
          1.0
        ],
        "metallicFactor": 0.0,
        "roughnessFactor": 0.6
      }
    }
  ],
  "meshes": [
    {
      "name": "Object_0",
      "primitives": [
        {
          "attributes": {
            "NORMAL": 1,
            "POSITION": 0,
            "TEXCOORD_0": 2
          },
          "indices": 3,
          "material": 0,
          "mode": 4
        }
      ]
    },
    {
      "name": "Object_1",
      "primitives": [
        {
          "attributes": {
            "NORMAL": 5,
            "POSITION": 4,
            "TEXCOORD_0": 6
          },
          "indices": 7,
          "material": 1,
          "mode": 4
        }
      ]
    },
    {
      "name": "Object_2",
      "primitives": [
        {
          "attributes": {
            "NORMAL": 9,
            "POSITION": 8,
            "TEXCOORD_0": 10
          },
          "indices": 11,
          "material": 2,
          "mode": 4
        }
      ]
    },
    {
      "name": "Object_3",
      "primitives": [
        {
          "attributes": {
            "NORMAL": 13,
            "POSITION": 12,
            "TEXCOORD_0": 14
          },
          "indices": 15,
          "material": 3,
          "mode": 4
        }
      ]
    },
    {
      "name": "Object_4",
      "primitives": [
        {
          "attributes": {
            "NORMAL": 17,
            "POSITION": 16,
            "TEXCOORD_0": 18
          },
          "indices": 19,
          "material": 4,
          "mode": 4
        }
      ]
    },
    {
      "name": "Object_5",
      "primitives": [
        {
          "attributes": {
            "NORMAL": 21,
            "POSITION": 20,
            "TEXCOORD_0": 22
          },
          "indices": 23,
          "material": 0,
          "mode": 4
        }
      ]
    },
    {
      "name": "Object_6",
      "primitives": [
        {
          "attributes": {
            "NORMAL": 25,
            "POSITION": 24,
            "TEXCOORD_0": 26
          },
          "indices": 27,
          "material": 1,
          "mode": 4
        }
      ]
    }
  ],
  "nodes": [
    {
      "children": [
        1
      ],
      "matrix": [
        1.094513177871704,
        0.0,
        0.0,
        0.0,
        0.0,
        2.4303074616576306e-16,
        -1.094513177871704,
        0.0,
        0.0,
        1.094513177871704,
        2.4303074616576306e-16,
        0.0,
        -0.20309248566627502,
        -7.725927603215015e-16,
        0.47944846749305725,
        1.0
      ],
      "name": "Sketchfab_model"
    },
    {
      "children": [
        2
      ],
      "name": "root"
    },
    {
      "children": [
        3
      ],
      "matrix": [
        1.0,
        0.0,
        0.0,
        0.0,
        0.0,
        2.220446049250313e-16,
        1.0,
        0.0,
        0.0,
        -1.0,
        2.220446049250313e-16,
        0.0,
        0.0,
        0.0,
        0.0,
        1.0
      ],
      "name": "GLTF_SceneRootNode"
    },
    {
      "children": [
        4,
        10
      ],
      "matrix": [
        1.533271459810489,
        0.0,
        -0.6734282035688577,
        0.0,
        0.0,
        1.6746423244476318,
        0.0,
        0.0,
        0.6734282035688577,
        0.0,
        1.533271459810489,
        0.0,
        0.0,
        0.0,
        0.0,
        1.0
      ],
      "name": "Plane_Control_2"
    },
    {
      "children": [
        5,
        6,
        7,
        8,
        9
      ],
      "matrix": [
        2.2024660110473633,
        0.0,
        0.0,
        0.0,
        0.0,
        2.202465772628784,
        0.0,
        0.0,
        0.0,
        0.0,
        2.2024660110473633,
        0.0,
        0.0,
        0.0,
        0.0,
        1.0
      ],
      "name": "Plane_0"
    },
    {
      "mesh": 0,
      "name": "Object_5"
    },
    {
      "mesh": 1,
      "name": "Object_6"
    },
    {
      "mesh": 2,
      "name": "Object_7"
    },
    {
      "mesh": 3,
      "name": "Object_8"
    },
    {
      "mesh": 4,
      "name": "Object_9"
    },
    {
      "children": [
        11,
        12
      ],
      "matrix": [
        2.2165932655334473,
        0.0,
        0.0,
        0.0,
        0.0,
        2.216593027114868,
        0.0,
        0.0,
        0.0,
        0.0,
        2.2165932655334473,
        0.0,
        -1.2047936916351318,
        0.7086436152458191,
        0.0,
        1.0
      ],
      "name": "Plane-Propeller_1"
    },
    {
      "mesh": 5,
      "name": "Object_11"
    },
    {
      "mesh": 6,
      "name": "Object_12"
    }
  ],
  "scene": 0,
  "scenes": [
    {
      "name": "Sketchfab_Scene",
      "nodes": [
        0
      ]
    }
  ]
}
